<svg id="_x35_0" enable-background="new 0 0 512 512" height="512" viewBox="0 0 512 512" width="512" xmlns="http://www.w3.org/2000/svg"><g><g><circle cx="256" cy="256" fill="#14a36d" r="256"/><circle cx="256" cy="256" fill="#15be79" r="190.357"/></g><g><g><g><path d="m137.419 89.484 119.324 126.537c13.626 14.446 25.795 30.193 36.331 47.023l2.637 4.222c11.816 18.859 25.717 36.324 41.451 52.057l69.523 69.523-17.84 17.84-69.523-69.523c-15.733-15.733-33.192-29.642-52.057-41.451l-4.214-2.645c-16.829-10.536-32.576-22.705-47.023-36.331l-126.537-119.324c-13.909-13.117-14.241-35.115-.728-48.642l.007-.007c13.52-13.52 35.532-13.187 48.649.721z" fill="#c2aacf"/><path d="m137.419 89.484 119.324 126.537c13.626 14.446 25.795 30.193 36.331 47.023l2.637 4.222c11.816 18.859 25.717 36.324 41.451 52.057l69.523 69.523-8.924 8.924-308.998-309 .007-.007c13.52-13.52 35.532-13.187 48.649.721z" fill="#decee5"/><path d="m227.477 214.439c-3.602 3.602-9.443 3.602-13.045 0l-103.065-103.065c-3.602-3.602-3.602-9.443 0-13.045 3.602-3.602 9.443-3.602 13.045 0l103.065 103.065c3.602 3.602 3.602 9.443 0 13.045z" fill="#f4e6f4"/></g><g><path d="m295.712 267.265c11.816 18.859 25.717 36.324 41.451 52.057l69.523 69.523-17.84 17.84-69.523-69.523c-15.733-15.733-33.192-29.642-52.057-41.451z" fill="#3e4e60"/><path d="m295.712 267.265c11.816 18.859 25.717 36.324 41.451 52.057l69.523 69.523-8.924 8.924-116.277-116.277z" fill="#3f5d77"/><g fill="#334353"><path d="m295.712 267.265c1.923 3.069 3.903 6.109 5.947 9.1l-25.286 25.286c-2.998-2.037-6.039-4.016-9.108-5.94z"/><path d="m381.388 388.684h25.23v10.64h-25.23z" transform="matrix(.707 -.707 .707 .707 -163.202 394.003)"/><path d="m359.637 366.933h25.23v10.64h-25.23z" transform="matrix(.707 -.707 .707 .707 -154.192 372.253)"/><path d="m337.887 345.182h25.23v10.64h-25.23z" transform="matrix(.707 -.707 .707 .707 -145.183 350.502)"/><path d="m313.665 292.813c2.199 2.807 4.455 5.572 6.753 8.294l-19.311 19.311c-2.715-2.305-5.487-4.554-8.294-6.753z"/><path d="m333.938 316.041c1.061 1.103 2.143 2.199 3.224 3.281l4.271 4.271-17.84 17.84-4.271-4.271c-1.082-1.082-2.178-2.164-3.281-3.224z"/></g><g fill="#3e4e60"><path d="m295.712 267.265c1.923 3.069 3.903 6.109 5.947 9.1l-12.65 12.65-7.524-7.524z"/><path d="m392.151 384.225h12.62v10.64h-12.62z" transform="matrix(.707 -.707 .707 .707 -158.743 395.85)"/><path d="m370.401 362.475h12.62v10.64h-12.62z" transform="matrix(.707 -.707 .707 .707 -149.734 374.099)"/><path d="m348.65 340.724h12.62v10.64h-12.62z" transform="matrix(.707 -.707 .707 .707 -140.725 352.349)"/><path d="m313.665 292.813c2.199 2.807 4.455 5.572 6.753 8.294l-9.659 9.659-7.524-7.524z"/><path d="m333.938 316.041c1.061 1.103 2.143 2.199 3.224 3.281l4.271 4.271-8.924 8.924-7.524-7.524z"/></g></g><g><path d="m428.987 386.724c5.572 5.572 5.572 14.595 0 20.167l-22.09 22.09c-2.786 2.786-6.435 4.186-10.083 4.186-3.649 0-7.304-1.393-10.09-4.179-1.329-1.329-2.348-2.857-3.033-4.49-2.22-5.204-1.209-11.448 3.034-15.691l22.09-22.09c2.786-2.786 6.435-4.172 10.083-4.172 1.909 0 3.818.382 5.6 1.146 1.632.685 3.16 1.703 4.489 3.033z" fill="#c2aacf"/><path d="m424.497 383.69c2.228 5.197 1.216 11.441-3.026 15.684l-22.09 22.09c-2.786 2.786-6.442 4.179-10.09 4.179-1.909 0-3.818-.382-5.6-1.146-2.22-5.204-1.209-11.448 3.034-15.691l22.09-22.09c2.786-2.786 6.435-4.172 10.083-4.172 1.908.001 3.817.383 5.599 1.146z" fill="#decee5"/><path d="m403.987 391.543-12.452 12.452c-2.665 2.665-2.665 6.987 0 9.652 2.665 2.665 6.987 2.665 9.652 0l12.452-12.452c2.665-2.665 2.665-6.987 0-9.652-2.665-2.665-6.986-2.665-9.652 0z" fill="#f4e6f4"/></g></g><g><g><path d="m422.516 137.412-126.537 119.324c-14.446 13.626-30.193 25.795-47.023 36.331l-4.222 2.637c-18.859 11.816-36.324 25.717-52.057 41.451l-69.523 69.523-17.84-17.84 69.523-69.523c15.733-15.733 29.642-33.192 41.451-52.057l2.645-4.214c10.536-16.829 22.705-32.576 36.331-47.023l119.324-126.537c13.117-13.909 35.115-14.241 48.642-.728l.007.007c13.52 13.52 13.188 35.532-.721 48.649z" fill="#c2aacf"/><path d="m422.516 137.412-126.537 119.324c-14.446 13.626-30.193 25.795-47.023 36.331l-4.222 2.637c-18.859 11.816-36.324 25.717-52.057 41.451l-69.523 69.523-8.924-8.924 309-308.998.007.007c13.52 13.52 13.188 35.532-.721 48.649z" fill="#decee5"/><path d="m297.561 227.47c-3.602-3.602-3.602-9.443 0-13.045l103.065-103.065c3.602-3.602 9.443-3.602 13.045 0 3.602 3.602 3.602 9.443 0 13.045l-103.064 103.065c-3.603 3.602-9.443 3.602-13.046 0z" fill="#f4e6f4"/></g><g><path d="m244.735 295.705c-18.859 11.816-36.324 25.717-52.057 41.451l-69.523 69.523-17.84-17.84 69.523-69.523c15.733-15.733 29.642-33.192 41.451-52.057z" fill="#3e4e60"/><path d="m244.735 295.705c-18.859 11.816-36.324 25.717-52.057 41.451l-69.523 69.523-8.924-8.924 116.277-116.277z" fill="#3f5d77"/><g fill="#334353"><path d="m244.735 295.705c-3.069 1.923-6.109 3.903-9.1 5.947l-25.286-25.286c2.037-2.998 4.016-6.039 5.94-9.108z"/><path d="m112.677 381.382h10.64v25.23h-10.64z" transform="matrix(.707 -.707 .707 .707 -244.037 198.835)"/><path d="m134.427 359.631h10.64v25.23h-10.64z" transform="matrix(.707 -.707 .707 .707 -222.287 207.845)"/><path d="m156.178 337.88h10.64v25.23h-10.64z" transform="matrix(.707 -.707 .707 .707 -200.536 216.854)"/><path d="m219.188 313.659c-2.807 2.199-5.572 4.455-8.294 6.753l-19.312-19.312c2.305-2.715 4.554-5.487 6.753-8.294z"/><path d="m195.959 333.931c-1.103 1.061-2.199 2.143-3.281 3.224l-4.271 4.271-17.84-17.84 4.271-4.271c1.082-1.082 2.164-2.178 3.224-3.281z"/></g><g fill="#3e4e60"><path d="m244.735 295.705c-3.069 1.923-6.109 3.903-9.1 5.947l-12.65-12.65 7.524-7.524z"/><path d="m117.135 392.145h10.64v12.62h-10.64z" transform="matrix(.707 -.707 .707 .707 -245.884 203.294)"/><path d="m138.886 370.394h10.64v12.62h-10.64z" transform="matrix(.707 -.707 .707 .707 -224.133 212.303)"/><path d="m160.636 348.644h10.64v12.62h-10.64z" transform="matrix(.707 -.707 .707 .707 -202.383 221.313)"/><path d="m219.188 313.659c-2.807 2.199-5.572 4.455-8.294 6.753l-9.659-9.659 7.524-7.524z"/><path d="m195.959 333.931c-1.103 1.061-2.199 2.143-3.281 3.224l-4.271 4.271-8.924-8.924 7.524-7.524z"/></g></g><g><path d="m125.277 428.981c-5.572 5.572-14.595 5.572-20.167 0l-22.09-22.09c-2.786-2.786-4.186-6.435-4.186-10.083 0-3.649 1.393-7.304 4.179-10.09 1.329-1.329 2.857-2.348 4.49-3.033 5.204-2.22 11.448-1.209 15.691 3.034l22.09 22.09c2.786 2.786 4.172 6.435 4.172 10.083 0 1.909-.382 3.818-1.146 5.6-.686 1.632-1.704 3.159-3.033 4.489z" fill="#c2aacf"/><path d="m128.31 424.49c-5.197 2.227-11.441 1.216-15.684-3.026l-22.09-22.09c-2.786-2.786-4.179-6.442-4.179-10.09 0-1.909.382-3.818 1.146-5.6 5.204-2.22 11.448-1.209 15.691 3.034l22.09 22.09c2.786 2.786 4.172 6.435 4.172 10.083 0 1.908-.382 3.818-1.146 5.599z" fill="#decee5"/><path d="m120.457 403.981-12.452-12.452c-2.665-2.665-6.987-2.665-9.652 0-2.665 2.665-2.665 6.987 0 9.652l12.452 12.452c2.665 2.665 6.987 2.665 9.652 0 2.666-2.665 2.666-6.987 0-9.652z" fill="#f4e6f4"/></g></g></g><g><g><g><path d="m353.33 152.864v148.109c0 47.975-38.895 86.87-86.87 86.87h-20.92c-47.975 0-86.87-38.895-86.87-86.87v-148.109c0-13.598 15.4-21.474 26.422-13.51l12.482 9.01c5.828 4.21 13.695 4.21 19.522 0l29.138-21.052c2.909-2.11 6.337-3.156 9.766-3.156 3.428 0 6.856 1.046 9.766 3.156l29.138 21.052c5.828 4.21 13.695 4.21 19.522 0l12.482-9.01c11.022-7.963 26.422-.088 26.422 13.51z" fill="#f39e22"/><path d="m353.33 152.864v148.109c0 47.975-38.895 86.87-86.87 86.87h-10.46v-263.686c3.428 0 6.856 1.046 9.766 3.156l29.138 21.052c5.828 4.21 13.695 4.21 19.522 0l12.482-9.01c11.022-7.964 26.422-.089 26.422 13.509z" fill="#f9c744"/></g><g><path d="m321.754 190.721v100.054c0 32.413-26.278 58.691-58.691 58.691h-14.126c-32.413 0-58.69-26.278-58.69-58.691v-100.054c0-9.187 10.406-14.511 17.854-9.132l8.424 6.088c3.94 2.847 9.257 2.847 13.19 0l19.695-14.22c1.966-1.424 4.279-2.131 6.591-2.131s4.625.708 6.591 2.131l19.694 14.22c3.933 2.847 9.25 2.847 13.19 0l8.424-6.088c7.448-5.38 17.854-.055 17.854 9.132z" fill="#c0405c"/><path d="m321.754 190.721v100.054c0 32.413-26.278 58.691-58.691 58.691h-7.063v-178.14c2.312 0 4.625.708 6.591 2.131l19.694 14.22c3.933 2.847 9.25 2.847 13.19 0l8.424-6.088c7.449-5.38 17.855-.055 17.855 9.132z" fill="#e9465e"/></g><g><path d="m296.178 170.901-7.296 5.274-18.572-13.405c-4.175-3.024-9.133-4.632-14.31-4.632s-10.135 1.609-14.327 4.641l-18.555 13.396-7.296-5.274c-15.857-11.734-38.93.123-38.763 19.821v100.055c0 39.633 32.25 71.875 71.875 71.875h14.134c39.625 0 71.875-32.241 71.875-71.875v-100.055c.157-19.68-22.873-31.573-38.765-19.821zm25.579 119.876c0 32.408-26.282 58.69-58.69 58.69h-14.134c-32.408 0-58.69-26.282-58.69-58.69v-100.055c0-6.654 5.467-11.286 11.304-11.286 2.224 0 4.5.668 6.557 2.154l8.421 6.091c3.938 2.839 9.256 2.848 13.193 0l19.689-14.222c1.969-1.424 4.281-2.136 6.592-2.136s4.623.712 6.592 2.136l19.689 14.222c3.938 2.848 9.256 2.839 13.193 0l8.421-6.091c2.057-1.486 4.333-2.154 6.557-2.154 5.837 0 11.304 4.632 11.304 11.286v100.055z" fill="#f4e6f4"/><path d="m334.942 190.722v100.055c0 39.633-32.25 71.875-71.875 71.875h-7.067v-13.185h7.067c32.408 0 58.69-26.282 58.69-58.69v-100.055c0-6.654-5.467-11.286-11.304-11.286-2.224 0-4.5.668-6.557 2.154l-8.421 6.091c-3.938 2.839-9.256 2.848-13.193 0l-19.689-14.222c-1.969-1.424-4.281-2.136-6.592-2.136v-13.185c5.177 0 10.135 1.609 14.31 4.632l18.573 13.405 7.296-5.274c15.89-11.752 38.92.141 38.762 19.821z" fill="#fff"/></g><path d="m344.136 300.973c-5.078 0-9.194-4.116-9.194-9.194v-91.863c0-5.078 4.116-9.194 9.194-9.194 5.078 0 9.194 4.116 9.194 9.194v91.863c0 5.078-4.116 9.194-9.194 9.194z" fill="#fad98f"/></g><g><g><g><path d="m309.983 263.563c0 29.813-24.17 53.983-53.983 53.983s-53.983-24.17-53.983-53.983c0-.774.017-1.549.051-2.315 1.213-28.74 24.893-51.668 53.932-51.668s52.719 22.927 53.932 51.668c.034.766.051 1.541.051 2.315z" fill="#ebd9ea"/><path d="m309.983 263.563c0 14.081-5.391 26.898-14.225 36.51-9.864 10.74-24.025 17.472-39.757 17.472v-107.965c15.732 0 29.893 6.732 39.757 17.472 8.349 9.085 13.621 21.025 14.174 34.196.034.766.051 1.541.051 2.315z" fill="#f9f2f9"/></g><g><path d="m309.932 261.248c-16.166 8.315-34.502 13.008-53.932 13.008s-37.766-4.694-53.932-13.008c1.213-28.74 24.893-51.668 53.932-51.668s52.719 22.928 53.932 51.668z" fill="#f9f2f9"/><path d="m309.932 261.248c-16.166 8.315-34.502 13.008-53.932 13.008v-64.676c15.732 0 29.893 6.732 39.757 17.472 8.349 9.086 13.621 21.026 14.175 34.196z" fill="#fff"/></g><g><path d="m309.983 263.563c0 14.081-5.391 26.898-14.225 36.51-7.2-7.842-12.085-17.791-13.668-28.71-.549-3.791-.702-7.698-.417-11.677.911-12.651 6.115-23.97 14.085-32.634 8.349 9.085 13.621 21.025 14.174 34.196.034.766.051 1.541.051 2.315z" fill="#ebd9ea"/><path d="m229.911 271.363c-1.583 10.919-6.468 20.868-13.668 28.71-8.834-9.613-14.225-22.43-14.225-36.51 0-.774.017-1.549.051-2.315.553-13.17 5.826-25.11 14.174-34.196 7.97 8.664 13.174 19.983 14.085 32.634.285 3.979.132 7.886-.417 11.677z" fill="#c1b7d3"/></g><g><path d="m309.932 261.248c-8.706 4.481-18.042 7.906-27.842 10.115-.549-3.791-.702-7.698-.417-11.677.911-12.651 6.115-23.97 14.085-32.634 8.348 9.086 13.62 21.026 14.174 34.196z" fill="#f9f2f9"/><path d="m229.911 271.363c-9.8-2.208-19.136-5.634-27.842-10.115.553-13.17 5.826-25.11 14.174-34.196 7.97 8.664 13.174 19.983 14.085 32.634.285 3.979.132 7.886-.417 11.677z" fill="#ebd9ea"/></g></g><g><path d="m297.834 297.678c-1.349 1.66-2.8 3.234-4.34 4.719-.902-.979-1.779-2-2.613-3.038-1.102-1.379 2.796 1.013 4.17-.089 1.379-1.098-.289-5.277.813-3.902.629.786 1.289 1.561 1.97 2.31z" fill="#e9465e"/><path d="m288.489 293.548c-1.064-.042-2.083-.614-2.65-1.607-.888-1.554-1.711-3.168-2.448-4.797-.726-1.606 2.453 1.792 4.059 1.065 1.606-.726 1.03-5.302 1.757-3.696.654 1.447 1.386 2.881 2.175 4.262.874 1.531.342 3.48-1.189 4.354-.537.308-1.127.442-1.704.419z" fill="#e9465e"/><path d="m283.302 281.056c-1.354-.053-2.576-.971-2.952-2.347-.472-1.726-.867-3.494-1.174-5.257-.302-1.737 1.962 2.236 3.698 1.934s2.288-4.765 2.59-3.028c.272 1.565.623 3.135 1.042 4.667.465 1.7-.536 3.455-2.236 3.921-.323.087-.649.123-.968.11z" fill="#e9465e"/><g fill="#ee6781"><path d="m281.404 267.661c-1.683-.066-3.039-1.439-3.064-3.143-.015-1.021-.002-2.055.038-3.075.03-.763.076-1.538.137-2.306.139-1.757 1.323 2.652 3.077 2.792 1.757.139 3.425-4.046 3.286-2.289-.054.683-.095 1.374-.122 2.052-.035.906-.047 1.826-.034 2.733.025 1.762-1.383 3.212-3.145 3.237-.058.002-.116.001-.173-.001z"/><path d="m282.895 254.213c-.205-.008-.412-.036-.62-.086-1.714-.409-2.773-2.131-2.363-3.845.416-1.744.92-3.485 1.497-5.175.57-1.668.585 2.902 2.253 3.471 1.668.57 4.357-3.076 3.787-1.408-.512 1.499-.959 3.045-1.329 4.593-.359 1.509-1.733 2.509-3.225 2.45z"/><path d="m287.664 241.551c-.463-.018-.93-.138-1.367-.37-1.558-.825-2.151-2.757-1.326-4.314.837-1.58 1.761-3.14 2.745-4.636.969-1.472-.166 2.971 1.306 3.94 1.473.969 4.995-1.904 4.026-.432-.874 1.328-1.694 2.713-2.437 4.116-.593 1.121-1.759 1.743-2.947 1.696z"/><path d="m297.881 229.504c-.655.689-1.545 1.017-2.43.983-.723-.03-1.443-.306-2.021-.83-1.302-1.187-1.396-3.209-.209-4.511.111-.119.221-.238.332-.357 1.536 1.481 2.979 3.055 4.328 4.715z"/></g></g><g><g fill="#e9465e"><path d="m216.979 227.98c-1.379 1.102.289 5.277-.813 3.902-.651-.813-1.332-1.613-2.038-2.387 1.349-1.66 2.796-3.238 4.332-4.723.932 1.008 1.834 2.055 2.689 3.123 1.102 1.375-2.796-1.017-4.17.085z"/><path d="m223.541 233.703c1.064.042 2.083.614 2.65 1.607.888 1.554 1.711 3.168 2.448 4.797.726 1.606-2.453-1.792-4.059-1.065-1.606.726-1.03 5.302-1.757 3.696-.654-1.447-1.386-2.881-2.175-4.262-.874-1.531-.342-3.48 1.189-4.354.537-.308 1.127-.442 1.704-.419z"/><path d="m228.728 246.195c1.354.053 2.576.971 2.952 2.347.472 1.726.867 3.494 1.174 5.257.302 1.737-1.962-2.236-3.698-1.934s-2.288 4.765-2.59 3.028c-.272-1.565-.623-3.135-1.042-4.667-.465-1.7.536-3.455 2.236-3.921.323-.087.649-.123.968-.11z"/><path d="m230.626 259.59c1.683.066 3.039 1.439 3.064 3.143.015 1.021.002 2.055-.038 3.075-.03.763-.076 1.538-.136 2.306-.139 1.757-1.323-2.652-3.077-2.792-1.757-.139-3.425 4.046-3.286 2.289.054-.683.095-1.374.122-2.052.036-.906.047-1.826.034-2.733-.025-1.762 1.383-3.212 3.145-3.237.057-.002.115-.001.172.001z"/></g><path d="m229.135 273.038c.205.008.412.036.62.086 1.714.409 2.773 2.131 2.363 3.845-.416 1.744-.92 3.485-1.497 5.174-.57 1.668-.585-2.902-2.253-3.471-1.668-.57-4.357 3.076-3.787 1.408.512-1.499.959-3.045 1.329-4.593.359-1.508 1.734-2.508 3.225-2.449z" fill="#c0405c"/><path d="m224.366 285.7c.463.018.93.138 1.367.37 1.558.825 2.151 2.757 1.326 4.314-.837 1.58-1.761 3.14-2.745 4.636-.969 1.472.166-2.971-1.306-3.94-1.473-.969-4.995 1.904-4.026.432.874-1.328 1.694-2.713 2.437-4.116.593-1.121 1.759-1.743 2.947-1.696z" fill="#c0405c"/><path d="m218.809 302.103c-.094.102-.187.204-.289.306-1.536-1.481-2.983-3.047-4.332-4.702.655-.66 1.523-.979 2.391-.94.723.026 1.443.302 2.021.83 1.302 1.187 1.396 3.204.209 4.506z" fill="#c0405c"/></g></g></g></g></svg>